/* XPM */
static char *dfb0fa7a08b54980e24e9e7b91f9fbc2gstjPb658sRUZ7hL[] = {
/* columns rows colors chars-per-pixel */
"32 32 8 1 ",
"  c #124E89",
". c #0B6FAE",
"X c #2CE8F5",
"o c #0099DB",
"O c black",
"+ c #FFB9B9",
"@ c #FF9090",
"# c #F27070",
/* pixels */
"      ....      ..XX        ....",
"      ....      ..XX        ....",
"            ooXXXX    OOOOOO  ..",
"            ooXXXX    OOOOOO  ..",
"  ....              OO++++++OOXX",
"  ....              OO++++++OOXX",
"    ........      OO++@@OO@@@@OO",
"    ........      OO++@@OO@@@@OO",
"      ..........  OO++@@@@@@@@OO",
"      ..........  OO++@@@@@@@@OO",
"......XXXXoo......OO++@@@@OOOOoo",
"......XXXXoo......OO++@@@@OOOOoo",
"..OOOOOO....oo....OOOOOOOO..XX..",
"..OOOOOO....oo....OOOOOOOO..XX..",
"OO++++++OO....ooOO++++++++OO....",
"OO++++++OO....ooOO++++++++OO....",
"OO@@@@@@++OO  ..OO@@@@@@@@OO....",
"OO@@@@@@++OO  ..OO@@@@@@@@OO....",
"..OOOO##@@++OO    OOOOOOOOXX....",
"..OOOO##@@++OO    OOOOOOOOXX....",
"XXXX..OO@@++OO    OO####OO..XXoo",
"XXXX..OO@@++OO    OO####OO..XXoo",
"......OO@@++OOOOOO@@@@@@OO  ....",
"......OO@@++OOOOOO@@@@@@OO  ....",
"  ..ooOO##@@@@@@@@@@@@@@OO  oooo",
"  ..ooOO##@@@@@@@@@@@@@@OO  oooo",
"    ....OO############OO  ......",
"    ....OO############OO  ......",
"      ....OOOOOOOOOOOO......    ",
"      ....OOOOOOOOOOOO......    ",
"        ....................    ",
"        ....................    "
};
