/* XPM */
static char *_271685a806a4ef9fc9c5064bba2b10aB9e3QSgHk4aMg8Do[] = {
/* columns rows colors chars-per-pixel */
"32 32 5 1 ",
"  c None",
". c black",
"X c #FFB9B9",
"o c #FF9090",
"O c #F27070",
/* pixels */
"                                ",
"                                ",
"                      ......    ",
"                      ......    ",
"                    ..XXXXXX..  ",
"                    ..XXXXXX..  ",
"                  ..XXoo..oooo..",
"                  ..XXoo..oooo..",
"                  ..XXoooooooo..",
"                  ..XXoooooooo..",
"                  ..XXoooo....  ",
"                  ..XXoooo....  ",
"  ......          ........      ",
"  ......          ........      ",
"..XXXXXX..      ..XXXXXXXX..    ",
"..XXXXXX..      ..XXXXXXXX..    ",
"..ooooooXX..    ..oooooooo..    ",
"..ooooooXX..    ..oooooooo..    ",
"  ....OOooXX..    ........      ",
"  ....OOooXX..    ........      ",
"      ..ooXX..    ..OOOO..      ",
"      ..ooXX..    ..OOOO..      ",
"      ..ooXX......oooooo..      ",
"      ..ooXX......oooooo..      ",
"      ..OOoooooooooooooo..      ",
"      ..OOoooooooooooooo..      ",
"        ..OOOOOOOOOOOO..        ",
"        ..OOOOOOOOOOOO..        ",
"          ............          ",
"          ............          ",
"                                ",
"                                "
};
