/* XPM */
static char *_866a77bb8a14c199ecd18afd04602f5cYUb8W8D1XvXugoj[] = {
/* columns rows colors chars-per-pixel */
"32 32 35 1 ",
"  c None",
". c #160E47",
"X c #150D47",
"o c #B88620",
"O c #FFBB09",
"+ c #B6871E",
"@ c #E8AB11",
"# c #FEBB09",
"$ c #FFBB0A",
"% c #FF5F37",
"& c #FF5D39",
"* c #FF5E37",
"= c #C04A3E",
"- c #C04A3F",
"; c #C04A40",
": c #160D47",
"> c #150D48",
", c #150D4A",
"< c #150D49",
"1 c #FEBB0A",
"2 c #131048",
"3 c #140F49",
"4 c #FEBC09",
"5 c #FF5F38",
"6 c #170E4A",
"7 c #130F47",
"8 c #130E47",
"9 c #49373A",
"0 c #150D46",
"q c #150E43",
"w c #B58721",
"e c #140E47",
"r c #B88623",
"t c #B9473C",
"y c #170F49",
/* pixels */
"                                ",
"                                ",
"                                ",
"                                ",
"                                ",
"                                ",
"                                ",
"         .XXXXXXXXXXXXXX        ",
"        XoOOOOOOOOOOOOOO.       ",
"       X+@##############X       ",
"       XO#####$$$$$$$$$$X       ",
"       XO#####%&**&&*&&*X       ",
"       XO#####=--=;;=;;=X       ",
"       XO#####:>,,><<<<<        ",
"       XO#####11112             ",
"       XO#########3             ",
"       XO#####44443             ",
"       XO#####5***6             ",
"       XO####O2778              ",
"       XO#####9999              ",
"       XO#########4444440       ",
"        qw##############0       ",
"        er$$$$$$$$$$$$$$X       ",
"        et**************X       ",
"         yXXXXXXXXXXXXXX        ",
"                                ",
"                                ",
"                                ",
"                                ",
"                                ",
"                                ",
"                                "
};
