/* XPM */
static char *_e40ec880c124d31d77f2e48b4320028VJBebe9C1VY0C4dk[] = {
/* columns rows colors chars-per-pixel */
"32 32 38 1 ",
"  c #124E89",
". c #0B6FAE",
"X c #2CE8F5",
"o c #0099DB",
"O c #160E47",
"+ c #150D47",
"@ c #B88620",
"# c #FFBB09",
"$ c #B6871E",
"% c #E8AB11",
"& c #FEBB09",
"* c #FFBB0A",
"= c #FF5F37",
"- c #FF5D39",
"; c #FF5E37",
": c #C04A3E",
"> c #C04A3F",
", c #C04A40",
"< c #160D47",
"1 c #150D48",
"2 c #150D4A",
"3 c #150D49",
"4 c #FEBB0A",
"5 c #131048",
"6 c #140F49",
"7 c #FEBC09",
"8 c #FF5F38",
"9 c #170E4A",
"0 c #130F47",
"q c #130E47",
"w c #49373A",
"e c #150D46",
"r c #150E43",
"t c #B58721",
"y c #140E47",
"u c #B88623",
"i c #B9473C",
"p c #170F49",
/* pixels */
"      ....      ..XX        ....",
"      ....      ..XX        ....",
"            ooXXXX            ..",
"            ooXXXX            ..",
"  ....                ....    XX",
"  ....                ....    XX",
"    ........            ..ooXX..",
"    .....O++++++++++++++..ooXX..",
"      ..+@##############O     ..",
"      .+$%&&&&&&&&&&&&&&+     ..",
"......X+#&&&&&**********+   ..oo",
"......X+#&&&&&=-;;--;--;+   ..oo",
"..ooXX.+#&&&&&:>>:,,:,,:+...XX..",
"..ooXX.+#&&&&&<122133333....XX..",
"XX.....+#&&&&&44445X....XXXX....",
"XX.....+#&&&&&&&&&6X....XXXX....",
"...... +#&&&&&77776.XXoo........",
"...... +#&&&&&8;;;9.XXoo........",
"....oo +#&&&&#500q......ooXX....",
"....oo +#&&&&&wwww......ooXX....",
"XXXX...+#&&&&&&&&&777777e...XXoo",
"XXXX....rt&&&&&&&&&&&&&&e...XXoo",
"........yu**************+   ....",
"........yi;;;;;;;;;;;;;;+   ....",
"  ..ooXX.p++++++++++++++    oooo",
"  ..ooXX....    ....        oooo",
"    ....XX........        ......",
"    ....XX........        ......",
"      ....XXXXXXoooo........    ",
"      ....XXXXXXoooo........    ",
"        ....................    ",
"        ....................    "
};
