/* XPM */
static char *eb625a7ae5a74fb78703801db5dfe340oSsPPka5SzQNh0i9[] = {
/* columns rows colors chars-per-pixel */
"32 32 4 1 ",
"  c #124E89",
". c #0B6FAE",
"X c #2CE8F5",
"o c #0099DB",
/* pixels */
"      ....      ..XX        ....",
"      ....      ..XX        ....",
"            ooXXXX            ..",
"            ooXXXX            ..",
"  ....                ....    XX",
"  ....                ....    XX",
"    ........            ..ooXX..",
"    ........            ..ooXX..",
"      ..........              ..",
"      ..........              ..",
"......XXXXoo........        ..oo",
"......XXXXoo........        ..oo",
"..ooXX......oo..............XX..",
"..ooXX......oo..............XX..",
"XX............ooooXX....XXXX....",
"XX............ooooXX....XXXX....",
"......        ......XXoo........",
"......        ......XXoo........",
"....oo            ......ooXX....",
"....oo            ......ooXX....",
"XXXX....                ....XXoo",
"XXXX....                ....XXoo",
"..........    ......        ....",
"..........    ......        ....",
"  ..ooXX....    ....        oooo",
"  ..ooXX....    ....        oooo",
"    ....XX........        ......",
"    ....XX........        ......",
"      ....XXXXXXoooo........    ",
"      ....XXXXXXoooo........    ",
"        ....................    ",
"        ....................    "
};
