/* XPM */
static char *_de7bcb587ca42b9b29de1c7bd261946X1eUpY0ywiCvgLfB[] = {
/* columns rows colors chars-per-pixel */
"32 32 10 1 ",
"  c #124E89",
". c #0B6FAE",
"X c #2CE8F5",
"o c #0099DB",
"O c black",
"+ c #FF9829",
"@ c #FFB15C",
"# c white",
"$ c #EA7A00",
"% c gray84",
/* pixels */
"      ....      ..XX        ....",
"      ....      ..XX        ....",
"            ooXXXX            ..",
"            ooXXXX            ..",
"  ....        OOOOOOOOOO..    XX",
"  ....        OOOOOOOOOO..    XX",
"    ........OO++++++@@@@OOooXX..",
"    ........OO++++++@@@@OOooXX..",
"      ....OO++OOOOOOOOOOOO    ..",
"      ....OO++OOOOOOOOOOOO    ..",
"....OOOOXXOOOO####@@@@@@@@OO..oo",
"....OOOOXXOOOO####@@@@@@@@OO..oo",
"..OO@@##OOOO@@####++##OO++@@OO..",
"..OO@@##OOOO@@####++##OO++@@OO..",
"OO$$++####@@++####++OOOO++++@@OO",
"OO$$++####@@++####++OOOO++++@@OO",
"OO$$++####++++####++OOOO++++++OO",
"OO$$++####++++####++OOOO++++++OO",
"OO$$++####++++####++++++++++$$OO",
"OO$$++####++++####++++++++++$$OO",
"XXOO$$%%OOOO$$####++++++++$$OOoo",
"XXOO$$%%OOOO$$####++++++++$$OOoo",
"....OOOO..  OO%%%%$$$$$$$$OO....",
"....OOOO..  OO%%%%$$$$$$$$OO....",
"  ..ooXX....  OOOOOOOOOOOO  oooo",
"  ..ooXX....  OOOOOOOOOOOO  oooo",
"    ....XX..OO$$++OO$$++OO......",
"    ....XX..OO$$++OO$$++OO......",
"      ....XXOOOOOOOOOOOO....    ",
"      ....XXOOOOOOOOOOOO....    ",
"        ....................    ",
"        ....................    "
};
