/* XPM */
static char *_39f22a26f914c1adac15171cae2306fXk6igqM138eqppCO[] = {
/* columns rows colors chars-per-pixel */
"32 32 7 1 ",
"  c None",
". c black",
"X c #FF9829",
"o c #FFB15C",
"O c white",
"+ c #EA7A00",
"@ c gray84",
/* pixels */
"                                ",
"                                ",
"                                ",
"                                ",
"              ..........        ",
"              ..........        ",
"            ..XXXXXXoooo..      ",
"            ..XXXXXXoooo..      ",
"          ..XX............      ",
"          ..XX............      ",
"    ....  ....OOOOoooooooo..    ",
"    ....  ....OOOOoooooooo..    ",
"  ..ooOO....ooOOOOXXOO..XXoo..  ",
"  ..ooOO....ooOOOOXXOO..XXoo..  ",
"..++XXOOOOooXXOOOOXX....XXXXoo..",
"..++XXOOOOooXXOOOOXX....XXXXoo..",
"..++XXOOOOXXXXOOOOXX....XXXXXX..",
"..++XXOOOOXXXXOOOOXX....XXXXXX..",
"..++XXOOOOXXXXOOOOXXXXXXXXXX++..",
"..++XXOOOOXXXXOOOOXXXXXXXXXX++..",
"  ..++@@....++OOOOXXXXXXXX++..  ",
"  ..++@@....++OOOOXXXXXXXX++..  ",
"    ....    ..@@@@++++++++..    ",
"    ....    ..@@@@++++++++..    ",
"              ............      ",
"              ............      ",
"            ..++XX..++XX..      ",
"            ..++XX..++XX..      ",
"            ............        ",
"            ............        ",
"                                ",
"                                "
};
