/* XPM */
static char *_2abe68ea5ce4a20c7efe962b5d1c188fyMLjJUUZyCwhmA2[] = {
/* columns rows colors chars-per-pixel */
"32 32 8 1 ",
"  c None",
". c #231C19",
"X c #95D836",
"o c #4DBD27",
"O c #0A7030",
"+ c #B66B3A",
"@ c #67332D",
"# c #D89E58",
/* pixels */
"    ........................    ",
"    ........................    ",
"  ..XXXXXXXXXXXXXXXXXXXXXXXX..  ",
"  ..XXXXXXXXXXXXXXXXXXXXXXXX..  ",
"..XXXXXXXXXXooooooooXXooXXXXXX..",
"..XXXXXXXXXXooooooooXXooXXXXXX..",
"..XXooXXXXXXooXXooooooooooXXXX..",
"..XXooXXXXXXooXXooooooooooXXXX..",
"..XXooXXXXXXooooooOOOOooooooXX..",
"..XXooXXXXXXooooooOOOOooooooXX..",
"..OOooooooooooooooOOOOooooooOO..",
"..OOooooooooooooooOOOOooooooOO..",
"..OOOOooooooOOooooooooooooOOOO..",
"..OOOOooooooOOooooooooooooOOOO..",
"....OOOOOOOOOOOOOOOOOOOOOOOO....",
"....OOOOOOOOOOOOOOOOOOOOOOOO....",
"................................",
"................................",
"..++@@@@@@@@@@@@@@@@@@@@@@@@++..",
"..++@@@@@@@@@@@@@@@@@@@@@@@@++..",
"..##++##++++++++++++++++++####..",
"..##++##++++++++++++++++++####..",
"..##++++++++++++++@@@@++++++##..",
"..##++++++++++++++@@@@++++++##..",
"..##++++@@@@++++++@@@@++@@++##..",
"..##++++@@@@++++++@@@@++@@++##..",
"..@@++++@@@@++++++++++++++++@@..",
"..@@++++@@@@++++++++++++++++@@..",
"  ..@@@@@@@@@@@@@@@@@@@@@@@@..  ",
"  ..@@@@@@@@@@@@@@@@@@@@@@@@..  ",
"    ........................    ",
"    ........................    "
};
