/* XPM */
static char *_70738f4749048918393a49973d42601hbxVDKxSInwhzQlZ[] = {
/* columns rows colors chars-per-pixel */
"32 32 9 1 ",
"  c #124E89",
". c #231C19",
"X c #0B6FAE",
"o c #95D836",
"O c #4DBD27",
"+ c #0A7030",
"@ c #B66B3A",
"# c #67332D",
"$ c #D89E58",
/* pixels */
"    ........................XXXX",
"    ........................XXXX",
"  ..oooooooooooooooooooooooo..XX",
"  ..oooooooooooooooooooooooo..XX",
"..ooooooooooOOOOOOOOooOOoooooo..",
"..ooooooooooOOOOOOOOooOOoooooo..",
"..ooOOooooooOOooOOOOOOOOOOoooo..",
"..ooOOooooooOOooOOOOOOOOOOoooo..",
"..ooOOooooooOOOOOO++++OOOOOOoo..",
"..ooOOooooooOOOOOO++++OOOOOOoo..",
"..++OOOOOOOOOOOOOO++++OOOOOO++..",
"..++OOOOOOOOOOOOOO++++OOOOOO++..",
"..++++OOOOOO++OOOOOOOOOOOO++++..",
"..++++OOOOOO++OOOOOOOOOOOO++++..",
"....++++++++++++++++++++++++....",
"....++++++++++++++++++++++++....",
"................................",
"................................",
"..@@########################@@..",
"..@@########################@@..",
"..$$@@$$@@@@@@@@@@@@@@@@@@$$$$..",
"..$$@@$$@@@@@@@@@@@@@@@@@@$$$$..",
"..$$@@@@@@@@@@@@@@####@@@@@@$$..",
"..$$@@@@@@@@@@@@@@####@@@@@@$$..",
"..$$@@@@####@@@@@@####@@##@@$$..",
"..$$@@@@####@@@@@@####@@##@@$$..",
"..##@@@@####@@@@@@@@@@@@@@@@##..",
"..##@@@@####@@@@@@@@@@@@@@@@##..",
"  ..########################..  ",
"  ..########################..  ",
"    ........................    ",
"    ........................    "
};
